<svg xmlns="http://www.w3.org/2000/svg" viewBox="0 0 1292 68" width="1292" height="68">
  <svg viewBox="0 0 68 68" width="68" height="68">
    <path d="M10 34c0 .835.043 1.66.126 2.473.65 6.35 3.775 11.967 8.395 15.869 1.118.944 2.323 1.788 3.601 2.518.484.275.978.535 1.481.777.582.281 1.178.538 1.785.771.723.279 1.464.523 2.22.731.511.141 1.03.266 1.555.373 1.562.32 3.18.488 4.837.488 1.894 0 3.736-.219 5.503-.634.558-.131 1.109-.281 1.652-.451.721-.225 1.428-.483 2.118-.772 1.162-.487 2.277-1.063 3.338-1.719.835-.517 1.637-1.084 2.4-1.696 1.308-1.051 2.504-2.235 3.567-3.533 2.276-2.779 3.94-6.078 4.788-9.692.307-1.309.507-2.66.59-4.042.029-.484.044-.971.044-1.461 0-1.166-.083-2.313-.244-3.435-.205-1.428-.535-2.816-.98-4.151-.277-.834-.6-1.649-.964-2.44C52.015 15.726 43.676 10 34 10c-13.255 0-24 10.745-24 24" fill="none" stroke="#f1f1f1" stroke-width="4" stroke-miterlimit="10"/>
    <path d="M35.4 32.2c.1-1.2.2-1.8.3-2 .1-.6.4-1.3.7-1.8.3-.6.6-.9.7-1.2.3-.3.6-.6 1-.9.6-.4 1.4-.6 2.1-.6.9 0 1.8.2 2.5.6.5.3 1.1 1 1.6 1.9.3.5.6 1.3.8 2.4.1.6.2 1.6.3 2.8 0 1.2 0 2.1-.1 2.9-.1 1-.3 1.8-.4 2.3-.2.7-.6 1.4-1.2 2-.5.6-1 1-1.5 1.2-.6.3-1.3.5-1.9.5-.7 0-1.5-.3-2.4-.8-.6-.4-1.2-1.1-1.7-2-.3-.5-.5-1-.6-1.6 0-.1-.1-.7-.2-1.7-.2-1.3-.2-2.6 0-4M22.5 39.3c0 .1.2.3.4.8.2.3.3.5.5.7.6.7 1.4 1.2 2.3 1.4.5.1.9.2 1.3.2.5 0 1-.1 1.5-.3.8-.3 1.5-.8 2.1-1.5.5-.7.9-1.4 1.1-2.3.2-.9.3-1.7.1-2.4-.1-.9-.5-1.6-1.1-2.2-.5-.5-1.1-.8-1.8-1.1-.6-.3-1.4-.3-2.3-.3-1.1.1-1.9.3-2.4.4.467-2.2.933-4.4 1.4-6.6h5.9" fill="none" stroke="#f1f1f1" stroke-width="2" stroke-miterlimit="10"/>
    <path d="M28 16h12" fill="none" stroke="#f1f1f1" stroke-width="2" stroke-dasharray="0,12.011999999999999" stroke-dashoffset="12" stroke-linecap="round"/>
  </svg>
  <svg viewBox="0 0 68 68" width="68" height="68" x="68">
    <path d="M10 34c0 .829.043 1.648.125 2.455.645 6.358 3.773 11.984 8.399 15.889 1.11.954 2.306 1.809 3.575 2.55.48.288.982.557 1.495.797.588.279 1.189.534 1.801.765.731.277 1.478.508 2.229.701.507.135 1.022.254 1.544.356 1.56.319 3.176.487 4.831.487 1.895 0 3.738-.22 5.506-.634.554-.125 1.101-.268 1.64-.431.716-.209 1.429-.454 2.128-.741 1.163-.484 2.28-1.055 3.342-1.707.843-.513 1.651-1.087 2.408-1.709 1.299-1.064 2.486-2.26 3.541-3.57 2.283-2.782 3.952-6.087 4.801-9.707.312-1.3.517-2.641.606-4.013.043-.481.069-.976.069-1.476 0-1.176-.082-2.333-.242-3.465-.203-1.432-.543-2.821-.998-4.147-.285-.828-.615-1.637-.987-2.422-3.794-8.246-12.128-13.973-21.8-13.978H34c-13.255 0-24 10.745-24 24" fill="none" stroke="#f1f1f1" stroke-width="4" stroke-miterlimit="10"/>
    <path d="M35.441 32.142c.1-1.193.201-1.791.301-1.991.1-.596.398-1.291.696-1.788.298-.596.596-.894.695-1.192.302-.303.606-.603 1.01-.901.595-.397 1.389-.596 2.084-.596.894 0 1.789.199 2.484.596.497.298 1.094.993 1.591 1.886.308.499.613 1.302.811 2.404.1.6.198 1.596.295 2.79 0 1.192 0 2.086-.1 2.88-.099.993-.298 1.788-.398 2.285-.199.696-.598 1.392-1.195 1.989-.497.596-.994.994-1.492 1.193-.596.298-1.291.497-1.887.497-.698.001-1.495-.296-2.392-.792-.006 0-.011-.002-.015-.006-.597-.398-1.193-1.094-1.69-1.988-.298-.497-.497-.994-.597-1.59-.002-.103-.102-.702-.201-1.699-.199-1.293-.199-2.585 0-3.977M22.346 39.209c.001.097.209.276.416.775.21.301.307.55.502.754.593.699 1.38 1.183 2.275 1.367.498.082.907.162 1.312.164.498.001.995-.096 1.493-.292.795-.295 1.491-.787 2.087-1.478.497-.69.895-1.381 1.094-2.269.199-.889.298-1.678.1-2.368-.1-.888-.497-1.578-1.093-2.17-.496-.492-1.092-.787-1.787-1.082-.596-.295-1.39-.294-2.284-.293-1.093.1-1.891.279-2.384.36.466-2.193.932-4.389 1.4-6.573 1.955 0 3.908.007 5.861.015" fill="none" stroke="#f1f1f1" stroke-width="2" stroke-miterlimit="10"/>
    <path d="M28 16h12" fill="none" stroke="#f1f1f1" stroke-width="2" stroke-dasharray="0,12.011999999999999" stroke-dashoffset="12" stroke-linecap="round"/>
  </svg>
  <svg viewBox="0 0 68 68" width="68" height="68" x="136">
    <path d="M10 34c0 .808.042 1.606.122 2.392.629 6.388 3.766 12.043 8.411 15.958 1.082.99 2.247 1.883 3.483 2.665.468.332.999.633 1.548.867.605.272 1.224.52 1.854.746.762.269 1.531.453 2.262.592.494.114.996.213 1.504.295 1.553.316 3.164.485 4.813.485 1.897 0 3.744-.222 5.516-.636.539-.101 1.072-.219 1.598-.358.697-.152 1.433-.352 2.163-.632 1.166-.471 2.287-1.028 3.356-1.662.87-.5 1.698-1.101 2.436-1.755 1.265-1.112 2.422-2.352 3.45-3.703 2.307-2.793 3.992-6.118 4.845-9.761.328-1.266.553-2.573.665-3.909.091-.468.158-.992.158-1.528 0-1.212-.081-2.406-.236-3.575-.199-1.444-.57-2.839-1.063-4.13-.313-.806-.67-1.595-1.067-2.36-3.783-8.239-12.102-13.967-21.76-13.989-.019-.001-.039-.002-.058-.002-13.256 0-24 10.744-24 24" fill="none" stroke="#f1f1f1" stroke-width="4" stroke-miterlimit="10"/>
    <path d="M35.589 31.937c.099-1.17.2-1.759.303-1.961.097-.582.389-1.26.68-1.745.291-.581.581-.872.679-1.162.308-.313.626-.617 1.044-.907.58-.386 1.353-.579 2.029-.579.874 0 1.747.193 2.427.58.487.29 1.07.967 1.557 1.838.335.493.659 1.307.852 2.418.097.597.189 1.58.278 2.754-.001 1.162-.003 2.034-.101 2.81-.098.968-.292 1.743-.39 2.228-.199.684-.592 1.367-1.18 1.953-.486.582-.974.971-1.461 1.167-.581.291-1.259.485-1.841.485-.69.007-1.478-.279-2.364-.762-.027 0-.053-.012-.071-.03-.582-.389-1.165-1.068-1.65-1.941-.293-.487-.488-.973-.587-1.556-.01-.112-.112-.71-.208-1.696-.194-1.266-.192-2.532.004-3.894M21.801 38.887c.004.087.24.188.469.685.246.306.336.726.513.946.568.693 1.309 1.121 2.186 1.249.49.018.932.029 1.352.039.491.004.98-.084 1.468-.264.779-.277 1.46-.743 2.043-1.401.487-.657.876-1.312 1.07-2.16.195-.847.293-1.598.1-2.252-.097-.848-.484-1.504-1.065-2.065-.484-.465-1.065-.739-1.743-1.018-.581-.279-1.356-.272-2.227-.271-1.067.1-1.857.205-2.325.22.462-2.167.929-4.351 1.397-6.475 1.912 0 3.821.029 5.723.069" fill="none" stroke="#f1f1f1" stroke-width="2" stroke-miterlimit="10"/>
    <path d="M28 16h12" fill="none" stroke="#f1f1f1" stroke-width="2" stroke-dasharray="0,12.011999999999999" stroke-dashoffset="12" stroke-linecap="round"/>
  </svg>
  <svg viewBox="0 0 68 68" width="68" height="68" x="204">
    <path d="M10 34c0 .764.039 1.519.115 2.263.595 6.447 3.752 12.165 8.438 16.101 1.023 1.062 2.126 2.033 3.295 2.899.443.422 1.031.788 1.653 1.009.643.257 1.299.492 1.965.706.823.255 1.637.342 2.329.37.467.073.942.13 1.422.171 1.54.31 3.139.481 4.774.481 1.904 0 3.759-.226 5.537-.64.511-.051 1.015-.121 1.512-.208.659-.036 1.442-.144 2.235-.408 1.174-.446 2.305-.973 3.386-1.573.926-.473 1.796-1.128 2.494-1.85 1.196-1.208 2.291-2.538 3.263-3.972 2.355-2.815 4.073-6.182 4.934-9.872.363-1.197.628-2.433.786-3.698.189-.443.339-1.024.339-1.634 0-1.286-.076-2.553-.224-3.798-.187-1.468-.625-2.875-1.194-4.096-.37-.763-.782-1.509-1.231-2.232-3.762-8.226-12.048-13.957-21.678-14.014-.049-.003-.099-.005-.15-.005-13.259 0-24 10.741-24 24" fill="none" stroke="#f1f1f1" stroke-width="4" stroke-miterlimit="10"/>
    <path d="M35.89 31.516c.099-1.122.202-1.694.308-1.898.094-.552.372-1.196.649-1.657.276-.55.552-.826.645-1.103.322-.331.668-.642 1.114-.916.548-.365 1.278-.547 1.917-.547.831 0 1.662.183 2.31.549.466.275 1.023.915 1.488 1.739.392.482.753 1.317.936 2.446.091.593.171 1.548.243 2.68-.004 1.102-.008 1.93-.104 2.667-.094.917-.279 1.651-.374 2.112-.197.659-.58 1.315-1.147 1.878-.466.554-.932.926-1.399 1.115-.552.276-1.195.46-1.746.462-.674.017-1.444-.247-2.307-.703-.072 0-.137-.029-.185-.077-.554-.372-1.109-1.018-1.571-1.847-.281-.465-.469-.93-.566-1.487-.025-.131-.13-.725-.221-1.688-.183-1.213-.179-2.424.01-3.725M20.687 38.228c.009.066.302.01.579.502.319.317.394 1.087.534 1.338.515.683 1.162.996 2.002 1.009.475-.113.985-.243 1.436-.217.476.008.949-.06 1.418-.208.745-.241 1.395-.653 1.952-1.242.465-.59.836-1.173 1.023-1.937.186-.764.28-1.435.098-2.017-.091-.765-.457-1.35-1.008-1.85-.458-.409-1.009-.642-1.652-.887-.551-.244-1.286-.226-2.112-.223-1.014.1-1.789.053-2.204-.068.453-2.115.922-4.273 1.392-6.277 1.825 0 3.641.077 5.44.179" fill="none" stroke="#f1f1f1" stroke-width="2" stroke-miterlimit="10"/>
    <path d="M28 16h12" fill="none" stroke="#f1f1f1" stroke-width="2" stroke-dasharray="0,12.011999999999999" stroke-dashoffset="12" stroke-linecap="round"/>
  </svg>
  <svg viewBox="0 0 68 68" width="68" height="68" x="272">
    <path d="M10 34c0 .689.035 1.369.104 2.04.536 6.551 3.727 12.375 8.483 16.347.923 1.188 1.916 2.293 2.971 3.303.399.577 1.087 1.055 1.834 1.254.708.232 1.427.444 2.156.636.929.23 1.82.151 2.444-.01.421 0 .85-.014 1.283-.043 1.516.299 3.096.473 4.707.473 1.913 0 3.783-.233 5.573-.646.46.033.915.049 1.363.049.594.165 1.458.215 2.36-.024 1.186-.402 2.333-.877 3.436-1.418 1.022-.426 1.964-1.174 2.593-2.012 1.079-1.375 2.065-2.859 2.942-4.438 2.438-2.853 4.213-6.292 5.088-10.061.423-1.08.757-2.194.995-3.334.356-.399.649-1.081.649-1.818 0-1.412-.069-2.807-.201-4.182-.169-1.511-.722-2.936-1.422-4.037-.468-.688-.973-1.36-1.513-2.013-3.725-8.203-11.954-13.938-21.536-14.055-.102-.007-.205-.011-.309-.011-13.263 0-24 10.737-24 24" fill="none" stroke="#f1f1f1" stroke-width="4" stroke-miterlimit="10"/>
    <path d="M36.41 30.79c.098-1.038.204-1.58.316-1.79.089-.501.342-1.085.595-1.504.25-.498.5-.749.586-1 .345-.365.741-.687 1.235-.933.493-.328 1.149-.492 1.723-.492.758 0 1.516.165 2.109.495.43.248.941.826 1.37 1.568.488.463.915 1.335 1.08 2.495.082.585.14 1.493.181 2.553-.007.998-.016 1.75-.106 2.42-.088.829-.259 1.494-.347 1.913-.194.614-.558 1.225-1.091 1.747-.43.507-.86.849-1.292 1.025-.501.251-1.083.419-1.584.423-.646.036-1.383-.19-2.207-.6-.148 0-.283-.061-.381-.158-.507-.343-1.012-.932-1.435-1.687-.26-.427-.436-.854-.529-1.365-.051-.164-.162-.753-.244-1.677-.165-1.119-.157-2.236.021-3.433M18.769 37.093c.017.03.41-.296.768.187.445.335.492 1.708.57 2.014.425.665.909.779 1.687.594.447-.338 1.075-.711 1.58-.659.45.018.894-.016 1.332-.11.685-.177 1.283-.497 1.793-.969.428-.472.769-.931.942-1.552.173-.62.259-1.155.096-1.612-.081-.622-.412-1.085-.909-1.48-.415-.312-.914-.474-1.497-.66-.499-.186-1.164-.148-1.912-.143-.925.1-1.672-.208-1.997-.564.438-2.024.91-4.137 1.383-5.934 1.675 0 3.331.158 4.954.368" fill="none" stroke="#f1f1f1" stroke-width="2" stroke-miterlimit="10"/>
    <path d="M28 16h12" fill="none" stroke="#f1f1f1" stroke-width="2" stroke-dasharray="0,12.011999999999999" stroke-dashoffset="12" stroke-linecap="round"/>
  </svg>
  <svg viewBox="0 0 68 68" width="68" height="68" x="340">
    <path d="M10 34c0 .579.03 1.15.087 1.713.451 6.704 3.691 12.684 8.55 16.708.775 1.371 1.61 2.672 2.495 3.895.336.805 1.169 1.446 2.102 1.613.802.195 1.614.373 2.434.534 1.085.194 2.089-.129 2.613-.568.354-.107.714-.225 1.078-.356 1.481.283 3.032.461 4.61.461 1.927 0 3.817-.244 5.625-.654.387.155.769.296 1.145.424.499.459 1.481.741 2.542.54 1.205-.337 2.376-.736 3.511-1.191 1.162-.358 2.209-1.242 2.738-2.25.906-1.619 1.735-3.33 2.471-5.12 2.56-2.908 4.419-6.453 5.314-10.339.51-.907.945-1.843 1.3-2.801.603-.335 1.105-1.164 1.105-2.087 0-1.596-.058-3.179-.169-4.745-.142-1.573-.862-3.026-1.754-3.951-.612-.578-1.255-1.142-1.927-1.69-3.67-8.169-11.817-13.912-21.328-14.116-.179-.013-.36-.02-.542-.02-13.269 0-24 10.731-24 24" fill="none" stroke="#f1f1f1" stroke-width="4" stroke-miterlimit="10"/>
    <path d="M37.168 29.732c.096-.916.206-1.415.328-1.632.08-.428.298-.924.516-1.283.213-.42.426-.635.501-.849.379-.414.846-.752 1.412-.958.411-.274.959-.411 1.439-.411.652 0 1.303.139 1.816.417.377.209.821.694 1.197 1.318.629.435 1.152 1.361 1.289 2.567.069.573.096 1.411.093 2.367-.013.847-.027 1.488-.111 2.059-.079.701-.227 1.265-.307 1.623-.19.55-.527 1.093-1.009 1.558-.377.437-.756.735-1.136.893-.426.214-.92.359-1.346.366-.606.062-1.296-.109-2.062-.451-.261 0-.497-.106-.668-.277-.436-.299-.871-.806-1.236-1.451-.229-.372-.388-.745-.476-1.189-.089-.212-.209-.793-.278-1.66-.137-.983-.123-1.963.038-3.007M15.958 35.43c.031-.023.568-.744 1.045-.275.63.361.638 2.619.623 3.004.293.638.54.462 1.225-.013.408-.668 1.207-1.397 1.791-1.305.412.03.813.047 1.205.031.599-.084 1.119-.268 1.563-.568.374-.3.67-.578.822-.988.152-.41.229-.744.093-1.018-.066-.414-.345-.698-.765-.938-.351-.171-.775-.229-1.268-.329-.424-.1-.987-.033-1.62-.025-.793.1-1.501-.59-1.693-1.289.415-1.893.892-3.939 1.369-5.433 1.455 0 2.878.277 4.241.645" fill="none" stroke="#f1f1f1" stroke-width="2" stroke-miterlimit="10"/>
    <path d="M28 16h12" fill="none" stroke="#f1f1f1" stroke-width="2" stroke-dasharray="0,12.011999999999999" stroke-dashoffset="12" stroke-linecap="round"/>
  </svg>
  <svg viewBox="0 0 68 68" width="68" height="68" x="408">
    <path d="M10 34c0 .453.023.901.068 1.342.353 6.876 3.65 13.034 8.626 17.118.607 1.579 1.261 3.104 1.955 4.567.262 1.064 1.262 1.891 2.404 2.022.91.153 1.828.292 2.752.419 1.261.151 2.395-.448 2.805-1.204.278-.228.559-.465.844-.712 1.442.265 2.961.448 4.5.448 1.943 0 3.857-.256 5.685-.664.303.295.602.579.896.852.392.793 1.507 1.339 2.75 1.182 1.225-.264 2.425-.577 3.595-.933 1.322-.281 2.489-1.32 2.903-2.521.71-1.896 1.359-3.865 1.936-5.896 2.699-2.971 4.654-6.636 5.571-10.656.609-.71 1.159-1.443 1.646-2.193.885-.263 1.625-1.259 1.625-2.394 0-1.806-.045-3.602-.133-5.385-.111-1.644-1.022-3.129-2.132-3.853-.775-.453-1.575-.895-2.398-1.324-3.608-8.131-11.661-13.882-21.09-14.186C34.541 10.01 34.272 10 34 10c-13.276 0-24 10.724-24 24" fill="none" stroke="#f1f1f1" stroke-width="4" stroke-miterlimit="10"/>
    <path d="M38.02 28.544c.094-.78.209-1.23.341-1.454.07-.345.248-.744.427-1.035.17-.334.341-.507.406-.681.416-.468.963-.825 1.609-.985.32-.213.748-.32 1.121-.32.532 0 1.064.109 1.488.329.317.165.686.547 1.002 1.038.788.404 1.418 1.391 1.525 2.647.053.561.046 1.321-.007 2.159-.02.677-.041 1.193-.117 1.654-.068.558-.191 1.008-.262 1.297-.185.479-.492.946-.917 1.346-.317.358-.638.607-.961.745-.342.172-.737.29-1.08.301-.56.092-1.196-.017-1.899-.283-.386 0-.735-.157-.988-.41-.358-.251-.714-.664-1.014-1.186-.195-.311-.334-.624-.417-.992-.131-.267-.26-.838-.314-1.641-.107-.83-.087-1.657.057-2.529M12.761 33.539c.045-.083.748-1.255 1.36-.801.84.392.803 3.655.683 4.13.142.608.119.102.699-.704.363-1.043 1.358-2.177 2.032-2.04.369.045.722.118 1.06.194.501.021.934-.008 1.3-.114.313-.104.559-.176.687-.346.129-.171.194-.277.09-.343-.05-.176-.27-.257-.602-.321-.278-.01-.615.049-1.007.048-.338-.002-.786.096-1.288.11-.643.1-1.306-1.026-1.348-2.115.39-1.743.872-3.714 1.354-4.863 1.205 0 2.363.412 3.431.961" fill="none" stroke="#f1f1f1" stroke-width="2" stroke-miterlimit="10"/>
    <path d="M28 16h12" fill="none" stroke="#f1f1f1" stroke-width="2" stroke-dasharray="0,12.011999999999999" stroke-dashoffset="12" stroke-linecap="round"/>
  </svg>
  <svg viewBox="0 0 68 68" width="68" height="68" x="476">
    <path d="M10 34c0 .342.018.68.052 1.013.266 7.029 3.612 13.344 8.693 17.481.458 1.764.951 3.488 1.475 5.164.198 1.294 1.345 2.286 2.673 2.385 1.006.115 2.017.22 3.033.316 1.418.114 2.666-.731 2.976-1.767.209-.336.422-.678.637-1.028 1.407.249 2.897.436 4.402.436 1.957 0 3.892-.267 5.737-.673.229.419.455.83.677 1.232.295 1.089 1.53 1.869 2.934 1.75 1.243-.199 2.468-.435 3.67-.704 1.464-.212 2.737-1.388 3.049-2.761.536-2.142 1.026-4.34 1.461-6.583 2.822-3.028 4.861-6.8 5.799-10.937.697-.536 1.349-1.089 1.954-1.656 1.133-.198 2.084-1.342 2.084-2.664 0-1.993-.034-3.978-.1-5.953-.084-1.707-1.164-3.22-2.468-3.767-.92-.342-1.859-.675-2.815-.999C52.37 16.189 44.4 10.43 35.043 10.038 34.698 10.013 34.351 10 34 10c-13.282 0-24 10.718-24 24" fill="none" stroke="#f1f1f1" stroke-width="4" stroke-miterlimit="10"/>
    <path d="M38.765 27.503c.093-.66.212-1.068.354-1.299.061-.272.205-.585.348-.816.134-.258.269-.396.322-.533.451-.517 1.067-.889 1.784-1.01.24-.16.561-.241.842-.241.427 0 .854.084 1.199.252.265.127.569.419.832.793.927.377 1.651 1.417 1.732 2.718.04.549.002 1.241-.095 1.976-.025.528-.052.934-.121 1.299-.06.432-.161.782-.223 1.012-.181.415-.461.816-.836 1.159-.266.29-.536.496-.808.616-.268.136-.577.231-.846.245-.521.117-1.11.064-1.757-.137-.495 0-.944-.201-1.27-.526-.289-.209-.575-.541-.818-.955-.165-.257-.286-.516-.364-.819-.169-.313-.307-.876-.347-1.623-.08-.697-.055-1.389.072-2.111M9.925 31.861c.059-.136.908-1.707 1.64-1.266 1.026.418.949 4.573.736 5.128.009.582-.253-.217.233-1.316.323-1.376 1.491-2.87 2.245-2.693.331.059.641.182.932.338.414.115.769.222 1.067.29.258.069.46.18.567.222.108.042.163.138.087.256-.036.036-.203.135-.457.226-.214.133-.474.297-.777.382-.261.085-.607.213-.993.23-.509.1-1.132-1.412-1.042-2.847.369-1.61.855-3.515 1.341-4.357.983 0 1.907.532 2.712 1.24" fill="none" stroke="#f1f1f1" stroke-width="2" stroke-miterlimit="10"/>
    <path d="M28 16h12" fill="none" stroke="#f1f1f1" stroke-width="2" stroke-dasharray="0,12.011999999999999" stroke-dashoffset="12" stroke-linecap="round"/>
  </svg>
  <svg viewBox="0 0 68 68" width="68" height="68" x="544">
    <path d="M10 34c0 .254.013.506.038.754.198 7.149 3.584 13.589 8.746 17.767.341 1.91.708 3.79 1.098 5.634.147 1.475 1.41 2.597 2.885 2.671 1.081.085 2.166.164 3.255.235 1.541.085 2.88-.953 3.11-2.211.156-.421.314-.846.474-1.277 1.38.237 2.846.427 4.324.427 1.968 0 3.92-.275 5.779-.68.171.516.338 1.027.504 1.531.22 1.322 1.548 2.286 3.079 2.198 1.258-.148 2.501-.324 3.728-.524 1.576-.157 2.933-1.442 3.165-2.95.399-2.336.763-4.713 1.087-7.125 2.919-3.072 5.025-6.928 5.979-11.158.765-.399 1.498-.81 2.196-1.232 1.329-.147 2.446-1.408 2.446-2.878 0-2.14-.025-4.274-.074-6.4-.063-1.756-1.275-3.292-2.732-3.699-1.035-.254-2.083-.502-3.144-.743-3.51-8.069-11.415-13.833-20.715-14.296C34.822 10.015 34.413 10 34 10c-13.286 0-24 10.714-24 24" fill="none" stroke="#f1f1f1" stroke-width="4" stroke-miterlimit="10"/>
    <path d="M39.349 26.688c.091-.566.213-.94.363-1.177.055-.216.171-.461.287-.646.106-.198.211-.308.257-.417.476-.554 1.148-.939 1.919-1.028.178-.119.416-.179.624-.179.345 0 .69.064.974.191.224.097.477.318.698.601 1.036.356 1.834 1.437 1.894 2.773.029.54-.032 1.179-.163 1.833-.03.412-.062.733-.125 1.022-.053.333-.137.606-.192.788-.178.366-.438.716-.774 1.014-.225.236-.454.408-.687.515-.211.107-.452.183-.664.2-.489.138-1.043.127-1.645-.022-.581 0-1.108-.236-1.49-.618-.235-.175-.467-.443-.665-.773-.142-.215-.25-.432-.324-.683-.198-.351-.342-.907-.372-1.61-.059-.593-.03-1.179.085-1.784M7.691 30.54c.07-.178 1.035-2.064 1.86-1.633 1.174.439 1.065 5.297.779 5.914-.096.561-.547-.469-.134-1.798.292-1.638 1.595-3.415 2.413-3.207.301.07.577.233.831.451.346.189.639.404.884.609.215.205.381.46.472.67.092.209.139.463.084.727-.024.202-.15.443-.343.657-.163.245-.362.492-.594.645-.202.154-.467.304-.761.324-.405.1-.996-1.716-.801-3.424.351-1.505.841-3.357 1.33-3.958.809 0 1.547.626 2.146 1.46" fill="none" stroke="#f1f1f1" stroke-width="2" stroke-miterlimit="10"/>
    <path d="M28 16h12" fill="none" stroke="#f1f1f1" stroke-width="2" stroke-dasharray="0,12.011999999999999" stroke-dashoffset="12" stroke-linecap="round"/>
  </svg>
  <svg viewBox="0 0 68 68" width="68" height="68" x="612">
    <path d="M10 34c0 .187.01.373.028.555.146 7.242 3.562 13.776 8.787 17.987.251 2.021.521 4.021.808 5.994.109 1.613 1.461 2.835 3.047 2.889 1.139.063 2.281.121 3.425.173 1.636.063 3.043-1.123 3.213-2.55.115-.486.231-.974.349-1.468 1.359.227 2.808.42 4.265.42 1.977 0 3.941-.282 5.811-.685.126.591.249 1.178.371 1.76.162 1.501 1.562 2.606 3.19 2.541 1.269-.109 2.527-.238 3.774-.386 1.661-.116 3.082-1.484 3.253-3.095.293-2.485.562-5 .8-7.54 2.993-3.106 5.15-7.026 6.116-11.327.819-.294 1.613-.597 2.382-.907 1.48-.109 2.724-1.459 2.724-3.043 0-2.252-.018-4.5-.055-6.742-.046-1.794-1.361-3.347-2.934-3.646-1.122-.188-2.254-.371-3.396-.548-3.477-8.048-11.331-13.817-20.588-14.332-.453-.033-.909-.05-1.37-.05-13.29 0-24 10.71-24 24" fill="none" stroke="#f1f1f1" stroke-width="4" stroke-miterlimit="10"/>
    <path d="M39.795 26.066c.09-.494.215-.843.369-1.084.05-.172.146-.367.241-.516.084-.153.167-.241.207-.329.496-.583 1.21-.977 2.023-1.043.131-.087.305-.13.458-.13.282 0 .565.048.801.144.193.075.406.241.597.455 1.118.34 1.973 1.452 2.016 2.815.022.534-.058 1.131-.215 1.724-.033.323-.068.578-.127.809-.048.258-.119.471-.169.618-.176.329-.419.638-.725.902-.195.195-.394.342-.596.438-.167.086-.357.148-.524.166-.466.154-.991.175-1.56.066-.647 0-1.234-.262-1.658-.687-.194-.15-.385-.369-.549-.635-.124-.182-.221-.368-.292-.579-.221-.38-.37-.931-.392-1.6-.043-.513-.011-1.019.095-1.534M5.981 29.528c.077-.21 1.13-2.337 2.028-1.915 1.286.456 1.153 5.852.81 6.517-.175.545-.771-.661-.414-2.167.267-1.839 1.676-3.833 2.541-3.601.278.078.528.271.754.538.293.245.54.543.743.852.182.31.322.676.4 1.013.079.337.12.714.082 1.089-.015.329-.11.679-.255.987-.124.331-.277.641-.455.847-.156.206-.359.373-.583.396-.325.1-.892-1.949-.617-3.866.338-1.424.83-3.236 1.323-3.653.674 0 1.27.698 1.712 1.629" fill="none" stroke="#f1f1f1" stroke-width="2" stroke-miterlimit="10"/>
    <path d="M28 16h12" fill="none" stroke="#f1f1f1" stroke-width="2" stroke-dasharray="0,12.011999999999999" stroke-dashoffset="12" stroke-linecap="round"/>
  </svg>
  <svg viewBox="0 0 68 68" width="68" height="68" x="680">
    <path d="M10 34c0 .136.007.27.021.403.105 7.312 3.544 13.92 8.817 18.155.182 2.107.379 4.198.587 6.27.079 1.719 1.498 3.017 3.171 3.057 1.183.045 2.368.087 3.555.125 1.709.046 3.169-1.254 3.292-2.811.083-.535.168-1.072.253-1.613 1.343.219 2.778.414 4.22.414 1.983 0 3.957-.287 5.836-.689.091.648.18 1.293.269 1.935.117 1.638 1.572 2.852 3.275 2.805 1.277-.08 2.547-.173 3.808-.28 1.727-.085 3.197-1.516 3.321-3.207.213-2.598.408-5.219.581-7.858 3.049-3.131 5.246-7.101 6.221-11.457.86-.213 1.701-.433 2.524-.658 1.595-.079 2.937-1.498 2.937-3.168 0-2.339-.014-4.674-.04-7.005-.033-1.823-1.426-3.389-3.089-3.606-1.19-.136-2.386-.269-3.59-.398-3.451-8.032-11.267-13.804-20.491-14.36C34.99 10.018 34.497 10 34 10c-13.293 0-24 10.707-24 24" fill="none" stroke="#f1f1f1" stroke-width="4" stroke-miterlimit="10"/>
    <path d="M40.136 25.591c.089-.44.216-.77.375-1.014.046-.139.125-.294.205-.416.067-.119.133-.19.168-.261.512-.605 1.258-1.007 2.102-1.054.095-.063.221-.095.331-.095.235 0 .469.037.669.11.169.056.353.182.52.342 1.182.327 2.079 1.464 2.11 2.848.016.528-.078 1.094-.255 1.64-.035.255-.073.46-.129.647-.044.201-.105.368-.151.487-.174.3-.405.58-.688.817-.171.164-.347.291-.526.379-.134.069-.284.121-.418.14-.447.166-.951.213-1.494.134-.698 0-1.329-.283-1.787-.741-.163-.13-.321-.312-.459-.529-.11-.158-.2-.319-.269-.5-.237-.401-.391-.949-.406-1.592-.032-.452.004-.896.102-1.342M4.669 28.752c.084-.235 1.205-2.546 2.158-2.13 1.372.468 1.221 6.276.835 6.979-.237.532-.944-.809-.63-2.451.249-1.993 1.737-4.153 2.639-3.902.261.084.491.3.695.604.253.289.464.65.636 1.039.157.39.275.84.344 1.276.069.435.106.905.081 1.366-.009.427-.079.86-.189 1.24-.094.397-.211.756-.348 1.001-.12.246-.276.427-.447.451-.263.1-.811-2.127-.474-4.204.327-1.363.821-3.144 1.316-3.419.572 0 1.059.754 1.38 1.758" fill="none" stroke="#f1f1f1" stroke-width="2" stroke-miterlimit="10"/>
    <path d="M28 16h12" fill="none" stroke="#f1f1f1" stroke-width="2" stroke-dasharray="0,12.011999999999999" stroke-dashoffset="12" stroke-linecap="round"/>
  </svg>
  <svg viewBox="0 0 68 68" width="68" height="68" x="748">
    <path d="M10 34c0 .096.005.192.015.286.075 7.367 3.531 14.03 8.841 18.284.129 2.173.269 4.335.416 6.482.056 1.801 1.528 3.158 3.267 3.186 1.217.032 2.436.062 3.656.089 1.764.032 3.264-1.355 3.352-3.011.059-.574.119-1.149.179-1.726 1.331.214 2.756.41 4.186.41 1.987 0 3.969-.291 5.854-.692.064.692.128 1.382.191 2.07.083 1.743 1.58 3.04 3.34 3.007 1.284-.057 2.563-.123 3.835-.199 1.777-.06 3.285-1.54 3.373-3.292.151-2.686.289-5.388.412-8.103 3.093-3.151 5.32-7.158 6.302-11.556.891-.151 1.768-.307 2.633-.467 1.684-.056 3.101-1.527 3.101-3.264 0-2.406-.01-4.808-.028-7.208-.024-1.845-1.477-3.421-3.209-3.575-1.241-.096-2.487-.19-3.738-.282-3.431-8.02-11.218-13.794-20.416-14.382C35.046 10.019 34.525 10 34 10c-13.295 0-24 10.705-24 24" fill="none" stroke="#f1f1f1" stroke-width="4" stroke-miterlimit="10"/>
    <path d="M40.397 25.226c.088-.398.217-.713.379-.959.043-.114.11-.239.178-.34.054-.092.108-.151.139-.209.524-.622 1.294-1.03 2.163-1.063.067-.044.156-.066.233-.066.198 0 .396.027.568.082.151.043.312.137.46.256 1.231.318 2.161 1.474 2.183 2.872.011.525-.093 1.067-.286 1.577-.037.203-.077.369-.131.523-.04.156-.094.289-.137.387-.172.278-.394.534-.66.752-.152.139-.31.251-.472.333-.108.056-.227.1-.336.12-.433.175-.921.241-1.444.185-.736 0-1.403-.298-1.886-.781-.138-.116-.272-.269-.39-.448-.1-.139-.184-.282-.251-.44-.25-.417-.406-.962-.418-1.586-.022-.405.016-.802.108-1.195M3.661 28.156c.088-.254 1.261-2.707 2.257-2.296 1.439.477 1.273 6.603.854 7.334-.284.523-1.076-.923-.796-2.669.235-2.111 1.785-4.399 2.716-4.134.247.089.462.323.649.655.222.322.405.732.553 1.183.137.452.24.967.301 1.478.062.511.095 1.053.08 1.579-.004.502-.055.999-.137 1.435-.071.447-.162.843-.266 1.12-.094.277-.213.468-.342.493-.216.1-.75-2.265-.366-4.464.319-1.316.815-3.074 1.312-3.239.492 0 .896.796 1.124 1.857" fill="none" stroke="#f1f1f1" stroke-width="2" stroke-miterlimit="10"/>
    <path d="M28 16h12" fill="none" stroke="#f1f1f1" stroke-width="2" stroke-dasharray="0,12.011999999999999" stroke-dashoffset="12" stroke-linecap="round"/>
  </svg>
  <svg viewBox="0 0 68 68" width="68" height="68" x="816">
    <path d="M10 34c0 .066.003.132.01.196.051 7.409 3.522 14.115 8.86 18.384.089 2.223.184 4.438.285 6.644.039 1.864 1.551 3.266 3.34 3.285 1.243.022 2.488.042 3.733.061 1.807.022 3.338-1.432 3.398-3.165.041-.603.082-1.206.124-1.812 1.32.21 2.738.407 4.158.407 1.992 0 3.979-.294 5.868-.695.045.726.088 1.451.131 2.174.057 1.824 1.587 3.185 3.391 3.162 1.289-.039 2.574-.084 3.855-.136 1.816-.041 3.353-1.559 3.413-3.357.104-2.754.199-5.518.283-8.291 3.127-3.167 5.376-7.203 6.364-11.633.915-.104 1.82-.211 2.717-.32 1.752-.039 3.226-1.55 3.226-3.339 0-2.456-.006-4.909-.019-7.362-.016-1.862-1.516-3.446-3.3-3.551-1.281-.066-2.564-.131-3.852-.194-3.417-8.01-11.18-13.787-20.359-14.399C35.089 10.02 34.547 10 34 10c-13.296 0-24 10.704-24 24" fill="none" stroke="#f1f1f1" stroke-width="4" stroke-miterlimit="10"/>
    <path d="M40.597 24.947c.088-.366.217-.669.382-.917.041-.095.099-.197.157-.281.044-.072.088-.122.117-.17.532-.635 1.321-1.047 2.209-1.07.046-.03.106-.045.159-.045.169 0 .339.021.491.062.136.033.28.102.414.191 1.268.31 2.223 1.48 2.238 2.89.008.522-.105 1.046-.309 1.528-.039.163-.081.3-.132.428-.039.123-.086.228-.127.31-.171.261-.386.5-.639.702-.138.121-.282.222-.431.299-.088.047-.184.084-.273.105-.422.182-.898.262-1.406.225-.765 0-1.459-.311-1.961-.813-.12-.104-.235-.236-.338-.386-.092-.125-.171-.253-.236-.393-.261-.43-.419-.973-.427-1.582-.015-.369.024-.73.112-1.083M2.887 27.698c.093-.268 1.305-2.83 2.334-2.422 1.489.484 1.313 6.853.868 7.605-.32.516-1.178-1.01-.922-2.835.223-2.202 1.82-4.588 2.773-4.312.237.092.44.34.614.694.199.348.36.795.49 1.293.122.499.213 1.064.268 1.634.057.568.087 1.165.079 1.741 0 .56-.037 1.106-.097 1.585-.054.486-.123.911-.204 1.211-.072.3-.163.499-.261.526-.179.1-.703-2.37-.282-4.664.313-1.28.81-3.019 1.308-3.102.432 0 .772.829.928 1.934" fill="none" stroke="#f1f1f1" stroke-width="2" stroke-miterlimit="10"/>
    <path d="M28 16h12" fill="none" stroke="#f1f1f1" stroke-width="2" stroke-dasharray="0,12.011999999999999" stroke-dashoffset="12" stroke-linecap="round"/>
  </svg>
  <svg viewBox="0 0 68 68" width="68" height="68" x="884">
    <path d="M10 34c0 .043.002.086.007.128.033 7.44 3.514 14.179 8.873 18.459.058 2.261.12 4.518.186 6.768.025 1.911 1.568 3.347 3.396 3.359 1.263.015 2.527.028 3.791.04 1.839.015 3.395-1.49 3.434-3.281.026-.625.053-1.251.08-1.878 1.314.207 2.725.405 4.138.405 1.995 0 3.987-.296 5.88-.697.028.752.057 1.503.085 2.253.037 1.885 1.591 3.294 3.429 3.279 1.292-.025 2.583-.055 3.871-.088 1.845-.027 3.403-1.574 3.443-3.407.067-2.805.129-5.616.184-8.433 3.152-3.179 5.419-7.237 6.412-11.691.932-.068 1.859-.138 2.78-.209 1.804-.025 3.322-1.568 3.322-3.395 0-2.494-.005-4.987-.013-7.479-.011-1.876-1.545-3.465-3.37-3.534-1.31-.043-2.623-.085-3.938-.126-3.405-8.004-11.151-13.782-20.315-14.412C35.122 10.021 34.563 10 34 10c-13.298 0-24 10.702-24 24" fill="none" stroke="#f1f1f1" stroke-width="4" stroke-miterlimit="10"/>
    <path d="M40.748 24.736c.087-.342.218-.636.384-.886.04-.079.09-.164.142-.236.036-.057.073-.099.1-.141.538-.644 1.342-1.059 2.244-1.074.029-.019.068-.029.102-.029.149 0 .297.016.433.046.126.025.256.077.379.141 1.296.305 2.271 1.486 2.281 2.905.004.52-.114 1.03-.327 1.491-.04.133-.083.248-.134.356-.036.097-.079.183-.118.253-.171.248-.38.473-.623.664-.128.107-.261.199-.4.273-.073.039-.151.071-.225.093-.415.188-.881.279-1.378.254-.787 0-1.501-.319-2.018-.836-.106-.095-.207-.21-.298-.339-.086-.113-.161-.231-.226-.358-.269-.44-.428-.981-.433-1.578-.01-.342.03-.676.115-.999" fill="#f1f1f1" fill-opacity=".0851054816" stroke="#f1f1f1" stroke-width="2" stroke-miterlimit="10"/>
    <path d="M2.3 27.351c.095-.279 1.338-2.924 2.392-2.519 1.528.489 1.343 7.043.879 7.812-.348.511-1.255-1.076-1.019-2.962.216-2.271 1.848-4.731 2.817-4.447.229.095.424.353.588.724.181.367.326.843.441 1.377.112.534.193 1.137.244 1.751.052.613.08 1.251.078 1.866.004.603-.023 1.187-.067 1.697-.04.516-.094.962-.156 1.281-.056.318-.126.523-.2.55-.152.1-.667-2.45-.219-4.816.309-1.251.807-2.977 1.305-2.996.387 0 .678.854.779 1.992" fill="none" stroke="#f1f1f1" stroke-width="2" stroke-miterlimit="10"/>
    <path d="M28 16h12" fill="none" stroke="#f1f1f1" stroke-width="2" stroke-dasharray="1.021265779266617,10.990734220733383" stroke-dashoffset="1.0212657793" stroke-linecap="round"/>
  </svg>
  <svg viewBox="0 0 68 68" width="68" height="68" x="952">
    <path d="M10 34c0 .026.001.052.004.077.02 7.464 3.509 14.227 8.884 18.515.035 2.29.073 4.577.113 6.86.015 1.946 1.58 3.408 3.437 3.415 1.277.009 2.555.017 3.834.024 1.863.009 3.436-1.534 3.46-3.368.016-.642.032-1.283.048-1.926 1.308.204 2.715.403 4.123.403 1.997 0 3.992-.297 5.888-.698.017.771.034 1.541.051 2.311.023 1.931 1.595 3.376 3.457 3.367 1.296-.015 2.59-.033 3.883-.054 1.866-.016 3.441-1.584 3.465-3.444.041-2.842.078-5.688.112-8.538 3.171-3.187 5.451-7.262 6.446-11.735.947-.04 1.889-.083 2.828-.126 1.842-.015 3.392-1.58 3.392-3.436 0-2.523-.002-5.045-.007-7.567-.007-1.885-1.567-3.479-3.422-3.52-1.333-.026-2.666-.052-4.002-.076-3.397-7.998-11.13-13.778-20.283-14.422C35.146 10.021 34.575 10 34 10c-13.299 0-24 10.701-24 24" fill="none" stroke="#f1f1f1" stroke-width="4" stroke-miterlimit="10"/>
    <path d="M40.859 24.581c.087-.324.218-.612.386-.863.038-.068.084-.14.13-.204.031-.045.062-.082.088-.118.543-.652 1.357-1.069 2.27-1.078.017-.011.04-.017.06-.017.133 0 .266.011.39.035.118.019.239.057.354.104 1.317.301 2.305 1.489 2.311 2.916.003.517-.12 1.017-.34 1.463-.041.111-.084.209-.134.303-.035.079-.075.149-.112.21-.17.239-.376.454-.611.637-.12.097-.246.182-.377.253-.062.034-.128.063-.191.085-.409.191-.868.291-1.356.276-.804 0-1.532-.326-2.06-.853-.096-.09-.187-.192-.269-.305-.082-.105-.154-.215-.219-.332-.273-.447-.435-.987-.437-1.576-.006-.322.035-.635.117-.936" fill="#f1f1f1" fill-opacity=".4572517398" stroke="#f1f1f1" stroke-width="2" stroke-miterlimit="10"/>
    <path d="M1.865 27.093c.097-.287 1.362-2.994 2.434-2.591 1.557.494 1.366 7.185.888 7.966-.369.507-1.313-1.125-1.091-3.056.209-2.322 1.869-4.838 2.85-4.547.223.097.411.363.568.746.167.381.301.878.406 1.439.102.561.177 1.192.225 1.838.049.645.075 1.315.078 1.958.005.635-.013 1.247-.045 1.782-.031.537-.073 1-.121 1.331-.044.332-.098.541-.155.569-.131.1-.64-2.509-.171-4.928.305-1.231.804-2.947 1.303-2.919.352 0 .607.872.668 2.035" fill="none" stroke="#f1f1f1" stroke-width="2" stroke-miterlimit="10"/>
    <path d="M28 16h12" fill="none" stroke="#f1f1f1" stroke-width="2" stroke-dasharray="5.487020877802459,6.524979122197541" stroke-dashoffset="5.4870208778" stroke-linecap="round"/>
  </svg>
  <svg viewBox="0 0 68 68" width="68" height="68" x="1020">
    <path d="M10 34c0 .014.001.028.002.041.011 7.481 3.505 14.261 8.892 18.555.018 2.31.038 4.619.06 6.925.008 1.971 1.589 3.451 3.466 3.455 1.288.004 2.576.009 3.865.013 1.88.004 3.466-1.565 3.479-3.43.008-.654.017-1.306.025-1.96 1.305.202 2.708.401 4.113.401 1.998 0 3.995-.299 5.893-.699.009.785.019 1.569.028 2.353.012 1.963 1.597 3.433 3.477 3.429 1.297-.009 2.594-.018 3.89-.029 1.882-.009 3.469-1.591 3.482-3.47.022-2.869.042-5.741.059-8.614 3.185-3.193 5.474-7.28 6.472-11.765.956-.022 1.909-.044 2.861-.067 1.869-.008 3.443-1.59 3.443-3.466 0-2.544-.002-5.086-.004-7.629-.004-1.892-1.583-3.489-3.458-3.511-1.349-.014-2.698-.028-4.048-.041-3.391-7.994-11.115-13.774-20.26-14.428C35.163 10.022 34.584 10 34 10c-13.299 0-24 10.701-24 24" fill="none" stroke="#f1f1f1" stroke-width="4" stroke-miterlimit="10"/>
    <path d="M40.937 24.472c.088-.312.219-.595.388-.847.037-.061.079-.123.122-.181.027-.038.054-.071.078-.103.547-.656 1.369-1.075 2.289-1.08.009-.006.02-.009.031-.009.122 0 .243.009.359.027.113.015.226.043.336.078 1.332.298 2.33 1.492 2.333 2.923.002.517-.125 1.009-.349 1.445-.041.095-.086.182-.134.266-.034.065-.072.125-.109.18-.169.232-.372.44-.602.617-.115.089-.235.17-.361.239-.054.03-.111.057-.166.079-.405.195-.859.299-1.341.292-.816 0-1.555-.331-2.09-.866-.088-.085-.172-.179-.249-.28-.078-.1-.149-.204-.213-.314-.277-.452-.439-.991-.441-1.574-.003-.308.039-.607.119-.892" fill="#f1f1f1" fill-opacity=".7755613111" stroke="#f1f1f1" stroke-width="2" stroke-miterlimit="10"/>
    <path d="M1.554 26.91c.099-.294 1.38-3.044 2.466-2.642 1.576.497 1.381 7.285.893 8.075-.384.503-1.354-1.16-1.142-3.123.205-2.359 1.883-4.914 2.873-4.619.219.099.403.37.554.762.158.392.283.903.381 1.483.096.58.166 1.231.212 1.901.046.668.071 1.36.077 2.023.007.658-.005 1.29-.029 1.841-.023.554-.057 1.028-.095 1.369-.037.341-.079.553-.123.582-.116.1-.621-2.552-.138-5.009.303-1.216.802-2.925 1.302-2.863.327 0 .557.885.589 2.065" fill="none" stroke="#f1f1f1" stroke-width="2" stroke-miterlimit="10"/>
    <path d="M28 16h12" fill="none" stroke="#f1f1f1" stroke-width="2" stroke-dasharray="9.306735733394373,2.705264266605627" stroke-dashoffset="9.3067357334" stroke-linecap="round"/>
  </svg>
  <svg viewBox="0 0 68 68" width="68" height="68" x="1088">
    <path d="M10 34c0 .006 0 .012.001.017.004 7.492 3.502 14.284 8.896 18.581.008 2.323.017 4.647.026 6.969.003 1.988 1.595 3.479 3.485 3.48 1.295.002 2.59.004 3.886.006 1.891.002 3.485-1.585 3.491-3.47.003-.662.007-1.322.011-1.984 1.301.201 2.703.401 4.105.401 1.999 0 3.998-.299 5.897-.7.004.794.008 1.587.012 2.38.005 1.985 1.598 3.472 3.49 3.47 1.299-.003 2.598-.007 3.896-.012 1.892-.003 3.487-1.596 3.492-3.487.009-2.887.018-5.775.025-8.664 3.194-3.197 5.489-7.291 6.488-11.785.963-.009 1.923-.019 2.884-.028 1.887-.004 3.476-1.596 3.476-3.486 0-2.557-.001-5.113-.002-7.67-.002-1.897-1.593-3.495-3.482-3.505-1.36-.005-2.718-.011-4.078-.017-3.387-7.992-11.106-13.772-20.245-14.432C35.175 10.022 34.59 10 34 10c-13.3 0-24 10.7-24 24" fill="none" stroke="#f1f1f1" stroke-width="4" stroke-miterlimit="10"/>
    <path d="M40.988 24.401c.087-.303.219-.584.388-.836.037-.056.076-.113.117-.166.024-.033.049-.063.072-.093.55-.66 1.376-1.08 2.301-1.082.003-.002.008-.003.012-.003.115 0 .229.007.34.021.109.013.218.035.325.062 1.34.296 2.345 1.494 2.346 2.928.001.515-.128 1.003-.355 1.432-.041.085-.086.164-.135.242-.033.056-.069.11-.105.16-.169.228-.371.432-.597.605-.111.085-.228.163-.351.23-.049.028-.1.053-.15.076-.402.196-.853.304-1.331.301-.824 0-1.569-.334-2.109-.873-.084-.082-.163-.171-.236-.265-.076-.096-.146-.196-.209-.302-.28-.455-.443-.994-.443-1.573-.002-.299.04-.589.12-.864" fill="#f1f1f1" fill-opacity=".9207757834" stroke="#f1f1f1" stroke-width="2" stroke-miterlimit="10"/>
    <path d="M1.35 26.789c.099-.298 1.391-3.076 2.485-2.676 1.59.499 1.392 7.352.897 8.148-.393.501-1.38-1.184-1.175-3.168.202-2.383 1.893-4.964 2.889-4.666.216.1.396.375.544.773.152.398.271.92.364 1.511.093.593.159 1.258.203 1.942.045.684.07 1.39.077 2.067.009.674 0 1.318-.018 1.881-.019.563-.047 1.045-.079 1.392-.031.348-.066.562-.101.591-.107.1-.609-2.58-.116-5.061.301-1.208.801-2.911 1.3-2.827.312 0 .524.893.538 2.085" fill="none" stroke="#f1f1f1" stroke-width="2" stroke-miterlimit="10"/>
    <path d="M28 16h12" fill="none" stroke="#f1f1f1" stroke-width="2" stroke-dasharray="11.049309401152218,0.9626905988477819" stroke-dashoffset="11.0493094012" stroke-linecap="round"/>
  </svg>
  <svg viewBox="0 0 68 68" width="68" height="68" x="1156">
    <path d="M10 34v.004c.001 7.498 3.501 14.296 8.899 18.596.002 2.33.004 4.662.006 6.992.001 1.997 1.599 3.495 3.497 3.495 1.299.001 2.598.001 3.896.002 1.898 0 3.497-1.597 3.498-3.493.001-.666.002-1.33.003-1.996 1.3.2 2.701.4 4.101.4 2 0 4-.3 5.9-.7 0 .799.001 1.597.002 2.395.001 1.997 1.6 3.494 3.498 3.493 1.3-.001 2.599-.002 3.899-.003 1.898-.001 3.497-1.599 3.498-3.497l.006-8.691c3.199-3.199 5.498-7.298 6.497-11.796.966-.003 1.931-.005 2.896-.007 1.897-.001 3.495-1.599 3.495-3.497 0-2.565-.001-5.128-.001-7.693 0-1.899-1.598-3.499-3.496-3.501-1.365-.001-2.729-.003-4.094-.004-3.385-7.99-11.1-13.771-20.237-14.435C35.181 10.022 34.593 10 34 10c-13.3 0-24 10.7-24 24" fill="none" stroke="#f1f1f1" stroke-width="4" stroke-miterlimit="10"/>
    <path d="M41.015 24.364c.087-.299.219-.578.388-.83.037-.054.075-.108.114-.159.023-.03.047-.059.07-.088.551-.661 1.379-1.082 2.306-1.082.001-.001.002-.001.003-.001.111 0 .222.006.329.019.108.011.214.03.319.053 1.346.295 2.354 1.495 2.354 2.93 0 .515-.13 1.001-.358 1.426-.042.079-.087.155-.135.229-.033.052-.069.102-.105.15-.169.226-.369.427-.593.598-.11.082-.225.159-.346.226-.046.026-.094.05-.142.073-.4.197-.849.308-1.326.307-.827 0-1.576-.335-2.118-.878-.082-.08-.159-.166-.229-.256-.075-.094-.145-.193-.208-.296-.281-.457-.444-.995-.444-1.572-.001-.295.041-.58.121-.849" fill="#f1f1f1" fill-opacity=".9833586357" stroke="#f1f1f1" stroke-width="2" stroke-miterlimit="10"/>
    <path d="M1.236 26.721c.1-.299 1.398-3.094 2.496-2.694 1.598.5 1.398 7.388.9 8.187-.399.501-1.396-1.196-1.195-3.192.201-2.396 1.899-4.991 2.898-4.692.214.1.393.378.539.779.148.401.264.929.354 1.527.091.6.156 1.272.199 1.965.044.693.068 1.407.077 2.091.009.682.002 1.334-.013 1.903-.016.569-.041 1.055-.069 1.406-.028.351-.059.566-.09.595-.101.1-.602-2.595-.103-5.091.3-1.201.8-2.902 1.3-2.806.303 0 .505.898.509 2.096" fill="none" stroke="#f1f1f1" stroke-width="2" stroke-miterlimit="10"/>
    <path d="M28 16h12" fill="none" stroke="#f1f1f1" stroke-width="2" stroke-dasharray="11.800303627907061,0.21169637209293857" stroke-dashoffset="11.8003036279" stroke-linecap="round"/>
  </svg>
  <svg viewBox="0 0 68 68" width="68" height="68" x="1224">
    <path d="M10 34c0 7.5 3.5 14.3 8.9 18.6v7c0 2 1.6 3.5 3.5 3.5h3.9c1.9 0 3.5-1.6 3.5-3.5v-2c1.3.2 2.7.4 4.1.4 2 0 4-.3 5.9-.7v2.4c0 2 1.6 3.5 3.5 3.5h3.9c1.9 0 3.5-1.6 3.5-3.5V51c3.2-3.2 5.5-7.3 6.5-11.8h2.9c1.9 0 3.5-1.6 3.5-3.5V28c0-1.9-1.6-3.5-3.5-3.5H56c-3.384-7.99-11.098-13.771-20.234-14.436C35.183 10.022 34.594 10 34 10c-13.3 0-24 10.7-24 24" fill="none" stroke="#f1f1f1" stroke-width="4" stroke-miterlimit="10"/>
    <path d="M41.021 24.355c.087-.298.219-.577.389-.829.036-.053.074-.106.113-.157.023-.029.046-.058.069-.086.551-.662 1.38-1.083 2.308-1.083.11 0 .22.006.327.018.107.011.213.029.317.051 1.347.295 2.356 1.495 2.356 2.931 0 .515-.13 1-.359 1.424-.042.078-.087.153-.135.226-.033.051-.068.1-.104.148-.169.225-.369.426-.593.596-.109.082-.224.158-.344.225-.046.026-.093.05-.14.073-.4.197-.849.308-1.325.308-.828 0-1.578-.336-2.121-.879-.081-.08-.157-.165-.227-.254-.075-.094-.144-.192-.207-.295-.282-.457-.445-.995-.445-1.572 0-.293.042-.577.121-.845" fill="#f1f1f1" stroke="#f1f1f1" stroke-width="2" stroke-miterlimit="10"/>
    <path d="M1.2 26.7c.1-.3 1.4-3.1 2.5-2.7 1.6.5 1.4 7.4.9 8.2-.4.5-1.4-1.2-1.2-3.2.2-2.4 1.9-5 2.9-4.7.214.1.392.378.538.78.147.403.262.932.351 1.533.09.602.154 1.276.197 1.972.044.695.068 1.412.077 2.098.009.685.003 1.339-.011 1.91-.015.571-.039 1.058-.066 1.41-.027.352-.057.568-.086.597-.1.1-.6-2.6-.1-5.1.3-1.2.8-2.9 1.3-2.8.3 0 .5.9.5 2.1" fill="none" stroke="#f1f1f1" stroke-width="2" stroke-miterlimit="10"/>
    <path d="M28 16h12" fill="none" stroke="#f1f1f1" stroke-width="2" stroke-linecap="round"/>
  </svg>
</svg>
